<?xml version="1.0" encoding="UTF-8"?>
<svg width="150px" height="150px" viewBox="0 0 150 150" version="1.1" xmlns="http://www.w3.org/2000/svg" xmlns:xlink="http://www.w3.org/1999/xlink">
    <title>academy</title>
    <g id="academy" stroke="none" stroke-width="1" fill="none" fill-rule="evenodd">
        <path d="M97.5668078,89.1027295 L106.09082,91.3926903 C118.55653,94.7415634 127.221672,106.041817 127.221672,118.949532 L127.218286,119.295178 C127.016458,129.136701 118.999593,137.000189 109.171015,137.000189 L41.7293948,137.000189 C31.9008175,137.000189 23.8839525,129.136701 23.6821241,119.295178 L23.6821241,119.295178 L23.6787378,118.949532 C23.6787378,106.041817 32.3438803,94.7415634 44.8095899,91.3926903 L44.8095899,91.3926903 L53.3336025,89.1027295 C54.2825038,88.8478088 55.2960939,89.0737055 56.0469412,89.7074456 L56.0469412,89.7074456 L75.450293,106.08442 L94.8534691,89.7074456 C95.6043164,89.0737055 96.6179065,88.8478088 97.5668078,89.1027295 Z M53.375054,95.304 L46.3662793,97.1872324 C36.644864,99.7988596 29.8502836,108.533878 29.6817862,118.53826 L29.6817862,118.53826 L29.6785802,118.918774 L29.6813348,119.202861 C29.8157108,125.75015 35.1681516,131.000189 41.7293948,131.000189 L41.7293948,131.000189 L72.390054,131.000189 L71.996054,111.02 L53.375054,95.304 Z M97.5248173,95.304 L78.9038173,111.021 L78.5098173,131.000189 L109.171015,131.000189 C115.732259,131.000189 121.0847,125.75015 121.219076,119.202861 L121.22183,118.918774 L121.218624,118.53826 C121.050127,108.533878 114.255546,99.7988596 104.534131,97.1872324 L97.5248173,95.304 Z M74.3428103,15.8001911 C74.8844091,15.6444963 75.4589101,15.6444963 76.0005089,15.8001911 L76.0005089,15.8001911 L125.727552,30.095353 C128.60029,30.9211866 128.630202,34.9812158 125.769943,35.8492858 L125.769943,35.8492858 L103.787438,42.5202379 C105.937626,46.9029981 107.07761,51.7455838 107.07761,56.75 C107.07761,74.6164117 92.5940214,89.1 74.7276097,89.1 C56.861198,89.1 42.3776097,74.6164117 42.3776097,56.75 C42.3776097,51.6292158 43.5717262,46.6814282 45.8127645,42.2280303 L33.468293,38.52042 L33.4690874,47.0993016 C36.5331468,48.2764459 38.729279,51.2039715 38.832979,54.6573733 L38.836815,54.9131985 C38.836815,58.3215983 36.7989868,61.2540378 33.8752509,62.5585965 L36.6500885,73.9990965 C37.0407335,75.6092402 36.0521346,77.2311998 34.441991,77.6218449 C34.2104117,77.6780295 33.972963,77.7064219 33.7346656,77.7064219 L27.1091596,77.7064219 C25.4523054,77.7064219 24.1091596,76.3632762 24.1091596,74.7064219 C24.1091596,74.4925915 24.1320212,74.2793739 24.1773545,74.0704042 L26.710157,62.3912011 C23.9765298,61.0144161 22.101293,58.1827998 22.101293,54.9131985 C22.101293,51.3492155 24.329409,48.3056368 27.4686649,47.0994383 L27.468293,36.71842 L24.5817436,35.851812 C21.7769458,35.0094905 21.7389835,31.0978099 24.4321751,30.1538227 L24.615767,30.095353 Z M48.3776097,56.75 C48.3776097,71.3027032 60.1749065,83.1 74.7276097,83.1 C89.2803129,83.1 101.07761,71.3027032 101.07761,56.75 C101.07761,52.3342305 99.9921499,48.0835887 97.9530045,44.2917418 L76.3047115,50.8616634 C75.7395259,51.0331935 75.1362817,51.0340723 74.5705988,50.8641895 L74.5705988,50.8641895 L51.6688649,43.9863591 C49.5251232,47.8489024 48.3776097,52.2111717 48.3776097,56.75 Z M75.171054,21.804 L36.083054,33.041 L75.429054,44.857 L114.311054,33.056 L75.171054,21.804 Z" fill="#000000" fill-rule="nonzero"></path>
    </g>
</svg>