<svg xmlns="http://www.w3.org/2000/svg" width="22" height="24" viewBox="0 0 22 24"><path fill="#564A44" d="M14.3149442,0.924267349 C15.903549,-0.52954303 18.4600136,-0.191546574 20.1943724,1.4012443 C22.0548422,3.10985216 22.269566,5.59531471 20.2841172,7.60847268 L19.350299,8.55801375 L14.5283097,13.5098886 C13.3674872,14.6984508 12.418695,15.6621598 11.6397073,16.4410107 L11.1895592,16.8892278 C10.1038333,17.9653696 9.39283867,18.6307652 8.90705926,19.0270317 C7.83480453,19.9017059 6.38266321,19.7465884 5.47594047,18.8086122 C4.54266916,17.8431722 4.51591646,16.4074614 5.56211485,15.2520896 L6.18257887,14.5940919 C7.64406683,13.0518566 10.3444304,10.2305725 14.2850984,6.12872638 L15.2205282,7.02739939 L10.5750728,11.8694945 C8.64535089,13.884778 7.30524145,15.2913054 6.55521178,16.0885819 C5.93547373,16.7473594 5.94157802,17.4239448 6.4085823,17.9070461 C6.86426023,18.3784306 7.55903983,18.4526469 8.08711911,18.0218749 L8.1745378,17.9495761 C9.0570596,17.2103032 10.7628175,15.5136245 14.0754942,12.116559 L18.6340722,7.43553878 L19.3605476,6.69761518 C20.8032275,5.23480108 20.6612328,3.59119035 19.3169585,2.35664316 C18.033453,1.17790448 16.221031,0.938279723 15.1906825,1.88120236 L14.9582675,2.09613934 C13.1548612,3.77979121 9.57911944,7.45547708 4.24125719,13.1137795 L2.94906468,14.4856739 C0.992541346,16.5426037 1.26930837,19.2086602 3.2638156,21.1156775 C5.24956055,23.014317 8.04513344,23.2928891 10.0443768,21.4801728 L10.1973472,21.3403913 C11.8881825,19.783962 14.9418845,16.6143807 19.345733,11.8431531 L20.2989318,12.7229566 L19.319659,13.7815365 C16.6334716,16.678402 14.4958778,18.924361 12.9036069,20.5223718 L12.6751481,20.7509399 L12.4873722,20.937666 C11.8707352,21.5490557 11.346917,22.0501447 10.9156877,22.4411408 C8.37275845,24.7468178 4.81358697,24.3921548 2.36737398,22.053246 C-0.0888878264,19.7047291 -0.467315793,16.2725104 1.93307524,13.6728404 L3.12207523,12.4098542 C8.82105385,6.36601789 12.5473035,2.54192225 14.3149442,0.924267349 Z"/></svg>