<svg xmlns="http://www.w3.org/2000/svg" width="240" height="140" viewBox="0 0 240 140"><path fill="#E8E1DC" d="M48.1694017,12.7527343 L37.247265,1.830599 C36.07517,0.658494667 34.485465,0 32.827865,0 L6.25,0 C2.798177,0 0,2.798177 0,6.25 L0,60.4166667 C0,63.8684897 2.798177,66.6666667 6.25,66.6666667 L43.75,66.6666667 C47.2018233,66.6666667 50,63.8684897 50,60.4166667 L50,17.1721353 C50,15.5145357 49.341505,13.92483 48.1694017,12.7527343 L48.1694017,12.7527343 Z M43.2445317,16.6666667 L33.3333333,16.6666667 L33.3333333,6.75546867 L43.2445317,16.6666667 Z M6.25,60.4166667 L6.25,6.25 L27.0833333,6.25 L27.0833333,19.7916667 C27.0833333,21.5175782 28.4824217,22.9166667 30.2083333,22.9166667 L43.75,22.9166667 L43.75,60.4166667 L6.25,60.4166667 Z M19.4891927,45.4277343 L15.2153645,41.6666667 L19.4890625,37.905599 C19.7220618,37.7008202 19.8619977,37.4102633 19.8768468,37.1004207 C19.8916958,36.790578 19.780187,36.4879708 19.5678385,36.261849 L17.3018228,33.8446615 C16.8611978,33.3742187 16.1346353,33.3678385 15.6822917,33.7924478 L8.17447917,40.8307292 C7.69231767,41.2830728 7.6921875,42.0503907 8.17460933,42.5026042 L15.6822917,49.5410157 C15.8939842,49.7406577 16.1741225,49.851604 16.4651042,49.8510677 C16.7823315,49.8521235 17.0856327,49.7208362 17.3019532,49.488802 L19.5679687,47.0717448 C19.7803315,46.8455787 19.8918462,46.5429293 19.8769975,46.2330445 C19.8621487,45.9231597 19.7222073,45.6325593 19.4891927,45.4277343 L19.4891927,45.4277343 Z M30.4636717,28.780599 L27.2864583,27.8582032 C26.9945967,27.7733153 26.6809617,27.8079265 26.4146333,27.954413 C26.1483067,28.1008997 25.95113,28.347246 25.8665367,28.6391927 L18.7552083,53.1329427 C18.5790365,53.7397135 18.929427,54.3766927 19.5361978,54.5528645 L22.7136718,55.4752603 C23.3230468,55.6516927 23.9580728,55.2989583 24.1335937,54.6942708 L31.2445317,30.2005208 C31.4208333,29.59375 31.0704433,28.9567708 30.4636717,28.780599 L30.4636717,28.780599 Z M41.82539,40.8307292 L34.3178383,33.7923177 C33.8587233,33.3617188 33.1330733,33.3802083 32.6981767,33.8445313 L30.4321617,36.2615885 C30.21984,36.4877492 30.1083517,36.7903695 30.1232,37.1002218 C30.1380483,37.4100742 30.2779633,37.7006472 30.5109367,37.9054688 L34.784635,41.6666667 L30.5109367,45.4277343 C30.2779383,45.6325132 30.1380017,45.92307 30.1231533,46.2329127 C30.1083033,46.5427553 30.2198133,46.8453625 30.4321617,47.0714843 L32.6981767,49.4886718 C32.905975,49.7104788 33.1934083,49.8406048 33.4971883,49.850398 C33.8009683,49.860191 34.0961867,49.748848 34.3178383,49.5408855 L34.3177083,49.5408855 L41.8255217,42.502474 C42.3076817,42.0502605 42.3076817,41.2829427 41.82539,40.8307292 L41.82539,40.8307292 Z" transform="translate(95 36.667)"/></svg>