<?xml version="1.0" encoding="UTF-8"?>
<svg width="650px" height="650px" viewBox="0 0 650 650" version="1.1" xmlns="http://www.w3.org/2000/svg" xmlns:xlink="http://www.w3.org/1999/xlink">
    <title>documentation</title>
    <g id="documentation" stroke="none" stroke-width="1" fill="none" fill-rule="evenodd">
        <path d="M420.625,370.469952 L420.625,386.623798 C420.625,390.43149 415.246094,393.546875 408.671875,393.546875 L241.328125,393.546875 C234.753906,393.546875 229.375,390.43149 229.375,386.623798 L229.375,370.469952 C229.375,366.66226 234.753906,363.546875 241.328125,363.546875 L408.671875,363.546875 C415.246094,363.546875 420.625,366.66226 420.625,370.469952 Z M408.671875,428.546875 L241.328125,428.546875 C234.753906,428.546875 229.375,431.66226 229.375,435.469952 L229.375,451.623798 C229.375,455.43149 234.753906,458.546875 241.328125,458.546875 L408.671875,458.546875 C415.246094,458.546875 420.625,455.43149 420.625,451.623798 L420.625,435.469952 C420.625,431.66226 415.246094,428.546875 408.671875,428.546875 Z M408.671875,298.546875 L241.328125,298.546875 C234.753906,298.546875 229.375,301.66226 229.375,305.469952 L229.375,321.623798 C229.375,325.43149 234.753906,328.546875 241.328125,328.546875 L408.671875,328.546875 C415.246094,328.546875 420.625,325.43149 420.625,321.623798 L420.625,305.469952 C420.625,301.66226 415.246094,298.546875 408.671875,298.546875 Z M516.25,199.384766 L516.25,530.1875 C516.25,556.583984 494.833984,578 468.4375,578 L181.5625,578 C155.166016,578 133.75,556.583984 133.75,530.1875 L133.75,115.8125 C133.75,89.4160156 155.166016,68 181.5625,68 L384.865234,68 C397.515625,68 409.667969,73.0800781 418.632812,82.0449219 L502.205078,165.617188 C511.169922,174.482422 516.25,186.734375 516.25,199.384766 Z M371,114.352047 L371,201 C371,206.522847 375.477153,211 381,211 L471.874682,211 C477.39753,211 481.874682,206.522847 481.874682,201 C481.874682,198.265247 480.754679,195.64981 478.775436,193.762625 L387.900753,107.114672 C383.903661,103.303491 377.573805,103.454202 373.762625,107.451294 C371.989288,109.311134 371,111.782275 371,114.352047 Z M482.4375,522.8125 L482.4375,257.504808 C482.4375,246.459113 473.483195,237.504808 462.4375,237.504808 L369.048611,237.504808 L369.048611,237.504808 C354.547917,237.504808 342.881944,226.161779 342.881944,212.0625 L342.881944,121.8125 C342.881944,110.766805 333.927639,101.8125 322.881944,101.8125 L188.4375,101.8125 C177.391805,101.8125 168.4375,110.766805 168.4375,121.8125 L168.4375,522.8125 C168.4375,533.858195 177.391805,542.8125 188.4375,542.8125 L462.4375,542.8125 C473.483195,542.8125 482.4375,533.858195 482.4375,522.8125 Z" id="Mask" fill="#404040"></path>
    </g>
</svg>