<svg xmlns="http://www.w3.org/2000/svg" width="240" height="140" viewBox="0 0 240 140"><path fill="#E8E1DC" d="M37.5,32.2916667 L37.5,35.9375 C37.5,36.796875 36.796875,37.5 35.9375,37.5 L14.0625,37.5 C13.203125,37.5 12.5,36.796875 12.5,35.9375 L12.5,32.2916667 C12.5,31.4322917 13.203125,30.7291667 14.0625,30.7291667 L35.9375,30.7291667 C36.796875,30.7291667 37.5,31.4322917 37.5,32.2916667 Z M35.9375,41.6666667 L14.0625,41.6666667 C13.203125,41.6666667 12.5,42.3697917 12.5,43.2291667 L12.5,46.875 C12.5,47.734375 13.203125,48.4375 14.0625,48.4375 L35.9375,48.4375 C36.796875,48.4375 37.5,47.734375 37.5,46.875 L37.5,43.2291667 C37.5,42.3697917 36.796875,41.6666667 35.9375,41.6666667 Z M50,17.1744792 L50,60.4166667 C50,63.8671875 47.20052,66.6666667 43.75,66.6666667 L6.25,66.6666667 C2.79947917,66.6666667 0,63.8671875 0,60.4166667 L0,6.25 C0,2.79947917 2.79947917,0 6.25,0 L32.82552,0 C34.4791667,0 36.0677083,0.6640625 37.2395833,1.8359375 L48.1640633,12.7604167 C49.3359367,13.9192708 50,15.5208333 50,17.1744792 Z M33.3333333,6.7578125 L33.3333333,16.6666667 L43.2421867,16.6666667 L33.3333333,6.7578125 Z M43.75,60.4166667 L43.75,22.9166667 L30.2083333,22.9166667 C28.4765633,22.9166667 27.0833333,21.5234375 27.0833333,19.7916667 L27.0833333,6.25 L6.25,6.25 L6.25,60.4166667 L43.75,60.4166667 Z" transform="translate(95 36.667)"/></svg>