<?xml version="1.0" encoding="UTF-8"?>
<svg width="700pt" height="700pt" version="1.1" viewBox="0 0 700 600" xmlns="http://www.w3.org/2000/svg" xmlns:xlink="http://www.w3.org/1999/xlink">
 <g>
  <path d="m537.41 157.27-93.336-93.336c-5.0391-4.9414-11.852-7.9297-19.41-7.9297h-241.64c-16.051 0-29.023 12.602-29.023 28v392c0 15.398 12.973 28 29.027 28h334.04c15.961 0 29.027-12.602 29.027-28v-298.67c-0.09375-7.8398-3.3594-15.023-8.6797-20.066zm-84.746-58.426 50.492 50.492h-50.492zm-158.67-24.172v106.21l-23.801-11.945c-1.3047-0.5625-2.8008-0.9375-4.1992-0.9375s-2.8945 0.375-4.1992 1.0273l-23.801 11.852v-106.21zm233.33 401.33c0 5.1328-4.668 9.332-10.359 9.332h-333.95c-5.6953 0-10.359-4.1992-10.359-9.332v-392c0-5.0391 4.7617-9.332 10.359-9.332h36.305v121.33c0 3.2656 1.6797 6.2539 4.3867 7.9336 2.707 1.6797 6.1602 1.8672 9.0547 0.375l33.227-16.523 33.133 16.613c1.3086 0.5625 2.8008 0.93359 4.1992 0.93359 1.6797 0 3.4531-0.46484 4.9453-1.3984 2.7109-1.6797 4.3906-4.668 4.3906-7.9336v-121.33h112c2.5195 0 4.8516 1.0273 6.5352 2.707l0.1875 0.1875c1.582 1.5859 2.6094 3.918 2.6094 6.4375v74.668c0 5.1328 4.1992 9.332 9.332 9.332h74.668c5.1328 0 9.332 4.1992 9.332 9.332z"/>
  <path d="m471.33 289.33h-242.66c-5.1328 0-9.332 4.1992-9.332 9.332 0 5.1328 4.1992 9.332 9.332 9.332h242.67c5.1328 0 9.332-4.1992 9.332-9.332 0-5.1289-4.2031-9.332-9.3359-9.332z"/>
  <path d="m471.33 354.67h-242.66c-5.1328 0-9.332 4.1992-9.332 9.332s4.1992 9.332 9.332 9.332h242.67c5.1328 0 9.332-4.1992 9.332-9.332s-4.2031-9.332-9.3359-9.332z"/>
  <path d="m471.33 420h-242.66c-5.1328 0-9.332 4.1992-9.332 9.332 0 5.1328 4.1992 9.332 9.332 9.332h242.67c5.1328 0 9.332-4.1992 9.332-9.332 0-5.1328-4.2031-9.332-9.3359-9.332z"/>
 </g>
</svg>
