<?xml version="1.0" encoding="UTF-8"?>
<svg width="150px" height="150px" viewBox="0 0 150 150" version="1.1" xmlns="http://www.w3.org/2000/svg" xmlns:xlink="http://www.w3.org/1999/xlink">
    <title>helpdesk_black</title>
    <g id="helpdesk_black" stroke="none" stroke-width="1" fill="none" fill-rule="evenodd">
        <path d="M57.25,25.6894446 C76.9872376,25.6894446 93.9989475,34.9572974 100.586237,48.2164637 C122.582434,51.0921688 139.528341,65.3249501 139.528341,82.4394446 C139.528341,87.2775905 138.547594,91.7829783 135.707436,95.8945195 L135.707436,95.8945195 L135.409887,96.3178281 C133.691631,98.720975 131.426973,101.19912 128.616228,103.764139 L128.616228,103.764139 L128.247072,104.098445 L128.488688,104.607091 C129.416498,106.506881 130.463034,108.348858 131.628678,110.133636 C131.871484,110.505409 132.164013,110.9073 132.505128,111.338888 C132.905894,111.845949 133.363616,112.38212 133.897723,112.974182 L133.897723,112.974182 L134.458012,113.585867 L137.428281,116.72039 L137.768198,117.089399 L138.061896,117.423665 C138.542576,117.983039 138.890333,118.451403 139.150168,118.927441 C140.006622,120.496527 140.077641,122.406652 138.040944,123.595768 C136.908578,124.256894 134.619788,124.429652 131.776945,124.235781 L131.776945,124.235781 L131.023162,124.176969 C130.895568,124.165808 130.767027,124.153974 130.637586,124.141476 L130.637586,124.141476 L129.850554,124.058615 C129.717716,124.043505 129.584078,124.027753 129.44969,124.011367 L129.44969,124.011367 L128.634755,123.905537 L127.804189,123.784995 C127.664591,123.763705 127.524441,123.741822 127.383787,123.719356 L127.383787,123.719356 L126.534231,123.577646 C126.391765,123.552888 126.248894,123.527567 126.10567,123.501694 L126.10567,123.501694 L125.24247,123.339896 L125.24247,123.339896 L124.808424,123.254171 L123.936927,123.073366 L123.062869,122.880491 C122.917111,122.847366 122.771346,122.813758 122.625622,122.779677 L122.625622,122.779677 L121.752179,122.569596 C121.316105,122.461798 120.881298,122.349924 120.449095,122.234244 L120.449095,122.234244 L119.588558,121.997889 L118.737343,121.751864 L117.897826,121.49665 L117.072382,121.232727 C116.254768,120.96461 115.46183,120.68415 114.704262,120.393509 L114.704262,120.393509 L113.958879,120.099554 L113.459687,119.891701 C111.120003,118.892411 108.63842,117.482838 106.005421,115.666066 L106.005421,115.666066 L105.935072,115.615445 L105.086425,115.772565 C104.396933,115.897353 103.722061,116.014394 103.061762,116.123674 L103.061762,116.123674 L101.760579,116.331885 C97.7016071,116.958427 94.2258822,117.273347 91.3212893,117.273347 C71.9177683,117.273347 55.2700545,108.179758 48.9084832,94.474213 C48.5968511,94.428993 48.2796364,94.3814124 47.9587772,94.3318847 L47.9587772,94.3318847 L46.6575946,94.1236744 C45.7771955,93.977967 44.8708896,93.8184635 43.9385639,93.6451947 L43.9385639,93.6451947 L43.784,93.6154446 L43.1520358,94.0491408 C40.7271488,95.6821127 38.4322329,96.9637888 36.2596695,97.8917012 L36.2596695,97.8917012 L35.7604772,98.0995539 L35.0150948,98.3935091 L34.2461326,98.6806765 C33.4661725,98.96429 32.6544074,99.2370016 31.8215309,99.4966499 L31.8215309,99.4966499 L30.9820134,99.7518638 L30.1307982,99.9978885 C29.9880862,100.0381 29.8449858,100.077909 29.7015465,100.117305 L29.7015465,100.117305 L28.8372403,100.348646 C28.5480468,100.424054 28.2578938,100.497731 27.9671775,100.569596 L27.9671775,100.569596 L27.0937342,100.779677 C26.8022872,100.847839 26.5106728,100.914109 26.2192871,100.978407 L26.2192871,100.978407 L25.3462125,101.165307 L24.4768868,101.339896 L23.6136864,101.501694 C23.3272378,101.553441 23.0422063,101.602977 22.7589877,101.65022 L22.7589877,101.65022 L21.9151672,101.784995 L21.0846013,101.905537 C20.9474102,101.924415 20.8108704,101.942679 20.6750314,101.960321 L20.6750314,101.960321 L19.8688031,102.058615 L19.0817704,102.141476 C18.9523299,102.153974 18.8237883,102.165808 18.696195,102.176969 L18.696195,102.176969 L17.9424114,102.235781 C15.0995681,102.429652 12.8107781,102.256894 11.6784127,101.595768 C9.64171598,100.406652 9.71273504,98.4965271 10.5691883,96.9274412 C10.8661432,96.3833977 11.2779335,95.8493773 11.8717354,95.1780735 L11.8717354,95.1780735 L12.2910752,94.7203901 L15.5481247,91.2749948 L16.0824118,90.6826847 C16.5067326,90.2042049 16.8802565,89.7614387 17.2142282,89.3388885 C17.5553433,88.9073 17.8478722,88.5054087 18.0906782,88.133636 C19.2563228,86.3488584 20.3028585,84.5068807 21.2306689,82.6070912 L21.2306689,82.6070912 L21.473,82.0984446 L21.103129,81.7641387 C18.2923837,79.1991198 16.0277255,76.720975 14.3094698,74.3178281 L14.3094698,74.3178281 L14.0119202,73.8945195 C11.1717622,69.7829783 10.1910155,65.2775905 10.1910155,60.4394446 C10.1910155,41.1007713 31.7268771,25.6894446 57.25,25.6894446 Z M102.869675,54.6524715 L102.890206,54.7454923 C103.29128,56.5949429 103.5,58.4966658 103.5,60.4394446 C103.5,80.016886 83.5525206,95.2733474 58.3980672,95.2733474 C57.6922952,95.2733474 56.9528027,95.2547539 56.1794158,95.2176144 C62.5298136,104.853196 75.8040936,111.273347 91.3212893,111.273347 C93.2956162,111.273347 95.6245513,111.103275 98.3027493,110.761675 L98.3027493,110.761675 L99.3926432,110.615883 L100.519716,110.451775 C100.901595,110.394017 101.289657,110.333203 101.683891,110.269329 L101.683891,110.269329 L102.885093,110.068524 C103.088375,110.033525 103.293196,109.997761 103.499555,109.961231 L103.499555,109.961231 L104.756154,109.73285 C105.181164,109.653655 105.612314,109.571393 106.04959,109.486059 L106.04959,109.486059 L107.32624,109.236921 L108.380706,109.998502 L108.887,110.360248 C111.572357,112.257921 114.019362,113.649439 116.213812,114.539403 C119.514564,115.878031 124.059096,117.079666 128.32457,117.789121 L128.32457,117.789121 L128.814575,117.868583 C129.300385,117.945319 129.773216,118.013837 130.229543,118.073795 L130.229543,118.073795 L130.474072,118.104445 L130.270851,117.891489 L129.737341,117.317388 C128.996742,116.508632 128.363723,115.775268 127.797888,115.059357 C127.350659,114.493511 126.953386,113.947716 126.605153,113.414519 C124.745755,110.5675 123.155913,107.586626 121.836746,104.473679 L121.836746,104.473679 L120.976712,102.444186 L122.656447,101.016956 L123.14157,100.601323 C126.498654,97.7007988 129.041516,94.9876857 130.770749,92.4843696 C132.790568,89.5603896 133.528341,86.1711803 133.528341,82.4394446 C133.528341,69.5149427 120.612826,57.9883761 102.869675,54.6524715 Z M57.25,31.6894446 C34.6918748,31.6894446 16.1910155,44.9288864 16.1910155,60.4394446 C16.1910155,64.1711803 16.928789,67.5603896 18.9486072,70.4843696 C20.7601848,73.1068912 23.4647244,75.9596663 27.0629092,79.0169558 L27.0629092,79.0169558 L28.7426449,80.4441861 L27.8826109,82.4736786 C26.5634435,85.5866261 24.9736015,88.5675005 23.1142039,91.4145185 C22.7659704,91.9477165 22.3686971,92.4935112 21.9214688,93.0593569 C21.5173007,93.5707217 21.0788553,94.0909915 20.5914109,94.6412804 L20.5914109,94.6412804 L19.9820159,95.3173876 L19.6579122,95.6687817 L19.2466375,96.1043802 L19.4898138,96.0737945 C19.9461402,96.0138371 20.4189716,95.9453191 20.9047813,95.8685833 L20.9047813,95.8685833 L21.3947864,95.789121 C25.6602609,95.0796657 30.2047924,93.8780308 33.5055448,92.5394028 C35.8371474,91.5938159 38.4538615,90.082022 41.3386506,87.9985018 L41.3386506,87.9985018 L42.3931165,87.2369206 L44.3210841,87.6117567 C44.7522304,87.6940201 45.1772437,87.7732135 45.5961112,87.8493402 L45.5961112,87.8493402 L46.8342637,88.0685239 C47.0375453,88.1035224 47.2392874,88.137755 47.4394882,88.1712223 L47.4394882,88.1712223 L48.6221863,88.3628452 C48.816216,88.3932528 49.0087014,88.4228958 49.1996408,88.4517748 L49.1996408,88.4517748 L50.3267134,88.6158834 L51.4166073,88.761675 C54.0948053,89.103275 56.4237404,89.2733474 58.3980672,89.2733474 C80.5364223,89.2733474 97.5,76.2990681 97.5,60.4394446 C97.5,44.79715 79.6446217,31.6894446 57.25,31.6894446 Z" id="helpdesk" fill="#000000" fill-rule="nonzero"></path>
    </g>
</svg>