<?xml version="1.0" encoding="UTF-8"?>
<svg width="700pt" height="700pt" version="1.1" viewBox="0 0 700  600" xmlns="http://www.w3.org/2000/svg" xmlns:xlink="http://www.w3.org/1999/xlink">
 <g>
  <path d="m256.67 298.67h-18.668c-5.1328 0-9.332 4.1992-9.332 9.332v74.664c0 5.1328 4.1992 9.332 9.332 9.332s9.332-4.1992 9.332-9.332v-28h9.332c15.398 0 28-12.602 28-28 0.003907-15.398-12.598-27.996-27.996-27.996zm0 37.332h-9.332v-18.668h9.332c5.1328 0 9.332 4.1992 9.332 9.332 0 5.1367-4.1992 9.3359-9.332 9.3359z"/>
  <path d="m340.67 298.67h-9.332c-5.1328 0-9.332 4.1992-9.332 9.332v74.668c0 5.1328 4.1992 9.332 9.332 9.332h9.332c25.762 0 46.668-20.906 46.668-46.668-0.003907-25.758-20.91-46.664-46.668-46.664zm0 74.664v-56c15.398 0 28 12.602 28 28 0 15.402-12.602 28-28 28z"/>
  <path d="m564.67 261.33h-18.668v-196c0-5.1328-4.1992-9.332-9.332-9.332h-298.67c-1.2148 0-2.4258 0.28125-3.5469 0.74609s-2.1484 1.1211-3.0781 2.0547l-74.668 74.668c-0.83984 0.83984-1.5859 1.8672-2.0547 3.0781-0.37109 1.0273-0.65234 2.2383-0.65234 3.4531v121.33h-18.668c-5.1328 0-9.332 4.1992-9.332 9.332v149.33c0 5.1328 4.1992 9.332 9.332 9.332h18.668v65.332c0 5.1328 4.1992 9.332 9.332 9.332h373.33c5.1328 0 9.332-4.1992 9.332-9.332v-65.332h18.668c5.1328 0 9.332-4.1992 9.332-9.332l0.003906-149.33c0-5.1328-4.1992-9.3359-9.332-9.3359zm-336-173.5v42.84h-42.84zm-56 61.504h65.332c5.1328 0 9.332-4.1992 9.332-9.332v-65.332h280v186.67l-354.66-0.003907zm354.66 336h-354.66v-56h354.67zm28-74.664h-410.66v-130.67h410.67z"/>
  <path d="m471.33 317.33c5.1328 0 9.332-4.1992 9.332-9.332s-4.1992-9.332-9.332-9.332h-37.332c-5.1328 0-9.332 4.1992-9.332 9.332v74.668c0 5.1328 4.1992 9.332 9.332 9.332s9.332-4.1992 9.332-9.332v-28h28c5.1328 0 9.332-4.1992 9.332-9.332 0-5.1328-4.1992-9.332-9.332-9.332h-28v-18.668z"/>
 </g>
</svg>
