<svg xmlns="http://www.w3.org/2000/svg" width="240" height="140" viewBox="0 0 240 140"><path fill="#E8E1DC" d="M48.1640615,12.7604166 L37.2395833,1.8359375 C36.0677078,0.664062505 34.4791659,0 32.8255213,0 L6.24999994,0 C2.79947915,0.0130208759 0,2.81250003 0,6.26302081 L0,60.4296873 C0,63.8802081 2.79947915,66.6796872 6.24999994,66.6796872 L43.7499996,66.6796872 C47.20052,66.6796872 50,63.8802081 50,60.4296873 L50,17.1874999 C50,15.5338541 49.335937,13.9322916 48.1640615,12.7604166 Z M43.2421871,16.6796874 L33.3333338,16.6796874 L33.3333338,6.77083331 L43.2421871,16.6796874 Z M6.24999994,60.4296873 L6.24999994,6.26302081 L27.0833334,6.26302081 L27.0833334,19.8046874 C27.0833334,21.5364583 28.4765621,22.9296875 30.2083336,22.9296875 L43.7499999,22.9296875 L43.7499999,60.4296873 L6.24999994,60.4296873 Z M38.8281251,41.7187498 C37.2395833,40.1562498 32.7083335,40.5859374 30.4427077,40.8723957 C28.2031254,39.5052082 26.7057297,37.6171873 25.651042,34.8437498 C26.1588545,32.7473958 26.9661455,29.5572915 26.354166,27.5520833 C25.8072909,24.1406249 21.4322916,24.4791665 20.8072915,26.7838541 C20.234375,28.8802083 20.7552082,31.7968748 21.7187499,35.5208332 C20.4166666,38.6328123 18.4765624,42.8124998 17.1093749,45.2083332 C14.5052083,46.5494789 10.9895833,48.6197915 10.4687499,51.2239582 C10.0390625,53.2812497 13.8541666,58.411458 20.3776041,47.1614581 C23.2942708,46.1979164 26.4713539,45.0130207 29.2838548,44.5442707 C31.744792,45.8723957 34.6223955,46.7578122 36.5494785,46.7578122 C39.8697919,46.7578122 40.1953121,43.0859374 38.8281251,41.7187498 Z M13.0338541,51.848958 C13.6979166,50.0651039 16.2239582,48.0078123 16.9921874,47.2916665 C14.5182291,51.2369789 13.0338541,51.940104 13.0338541,51.848958 Z M23.658854,27.0312499 C24.6223957,27.0312499 24.5312499,31.2109374 23.8932291,32.3437499 C23.3203124,30.533854 23.3333333,27.0312499 23.658854,27.0312499 L23.658854,27.0312499 Z M20.4817708,44.8177082 C21.7447916,42.6171874 22.8255208,39.9999998 23.6979167,37.6953123 C24.7786457,39.6614582 26.1588545,41.236979 27.6171876,42.3177082 C24.9088541,42.877604 22.5520832,44.0234373 20.4817708,44.8177082 L20.4817708,44.8177082 Z M37.617187,44.1666664 C37.617187,44.1666664 36.9661449,44.9479165 32.760417,43.1510414 C37.3307294,42.8124998 38.0859369,43.8541664 37.617187,44.1666664 Z" transform="translate(95 36.66)"/></svg>