<?xml version="1.0" encoding="UTF-8"?>
<svg width="150px" height="150px" viewBox="0 0 150 150" version="1.1" xmlns="http://www.w3.org/2000/svg" xmlns:xlink="http://www.w3.org/1999/xlink">
    <title>profile_img_black</title>
    <g id="profile_img_black" stroke="none" stroke-width="1" fill="none" fill-rule="evenodd">
        <path d="M86.101121,78.4810642 C91.8680069,76.9202444 97.8535447,80.2476569 99.5505968,86.0076113 C99.8486564,87.0192535 100,88.0684333 100,89.1230704 L100,89.1230704 L100,97.6638802 C100,101.517597 96.8759451,104.641652 93.022228,104.641652 L93.022228,104.641652 L56.977772,104.641652 C53.1240549,104.641652 50,101.517597 50,97.6638802 L50,97.6638802 L50,89.1230704 C50,83.0692661 54.9075781,78.161688 60.9613824,78.161688 C62.0095181,78.161688 63.0522289,78.3120193 64.0576357,78.6080863 C67.6180828,79.6564993 71.199998,80.1796174 74.8098559,80.1796174 C78.4861778,80.1796174 82.1678277,79.637043 85.8609727,78.5489337 L85.8609727,78.5489337 Z M95.0293956,87.1327931 C93.9602341,83.8749706 90.4875279,82.0353498 87.1756796,83.0111345 C83.0601162,84.2237006 78.9361158,84.8314654 74.8098559,84.8314654 C70.7522806,84.8314654 66.7280472,84.2437493 62.7436021,83.0704854 C62.1648813,82.9000666 61.5646971,82.813536 60.9613824,82.813536 C57.4767228,82.813536 54.651848,85.6384108 54.651848,89.1230704 L54.651848,89.1230704 L54.651848,97.6638802 C54.651848,98.9484525 55.6931996,99.9898042 56.977772,99.9898042 L56.977772,99.9898042 L93.022228,99.9898042 C94.3068004,99.9898042 95.348152,98.9484525 95.348152,97.6638802 L95.348152,97.6638802 L95.348152,89.1230704 C95.348152,88.5134809 95.2606741,87.9070459 95.0883931,87.3223079 L95.0883931,87.3223079 Z M75,45.3583479 C83.1689263,45.3583479 89.7911495,51.9805711 89.7911495,60.1494973 C89.7911495,68.3184236 83.1689263,74.9406468 75,74.9406468 C66.8310737,74.9406468 60.2088505,68.3184236 60.2088505,60.1494973 C60.2088505,51.9805711 66.8310737,45.3583479 75,45.3583479 Z M75,50.0101958 C69.4002184,50.0101958 64.8606985,54.5497157 64.8606985,60.1494973 C64.8606985,65.7492789 69.4002184,70.2887988 75,70.2887988 C80.5997816,70.2887988 85.1393015,65.7492789 85.1393015,60.1494973 C85.1393015,54.5497157 80.5997816,50.0101958 75,50.0101958 Z" id="Combined-Shape" fill="#000000" fill-rule="nonzero" transform="translate(75.000000, 75.000000) rotate(-360.000000) translate(-75.000000, -75.000000) "></path>
    </g>
</svg>