<svg xmlns="http://www.w3.org/2000/svg" width="24" height="24" viewBox="0 0 24 24"><path fill="#FFF" fill-rule="evenodd" d="M20.5847953,0.304093567 L1.12280702,11.5274854 C-0.486549708,12.4584795 -0.332163743,14.8397661 1.38947368,15.5461988 L6.73684211,17.7590643 L6.73684211,21.7076023 C6.73684211,23.8783626 9.50643275,24.7719298 10.7883041,23.045614 L12.8374269,20.2807018 L18.0725146,22.4421053 C18.348538,22.554386 18.6385965,22.6105263 18.928655,22.6105263 C19.3122807,22.6105263 19.6912281,22.5122807 20.0327485,22.3204678 C20.6315789,21.9836257 21.0432749,21.3847953 21.1508772,20.7064327 L23.9298246,2.59181287 C24.2152047,0.715789474 22.2035088,-0.626900585 20.5847953,0.304093567 Z M8.98245614,21.7076023 L8.98245614,18.6853801 L10.6947368,19.3918129 L8.98245614,21.7076023 Z M18.928655,20.3649123 L11.7333333,17.394152 L18.2923977,7.92982456 C18.7929825,7.20467836 17.8479532,6.3625731 17.1836257,6.9380117 L7.28888889,15.5602339 L2.24561404,13.4736842 L21.7076023,2.24561404 L18.928655,20.3649123 Z"/></svg>