<?xml version="1.0" encoding="UTF-8"?>
<svg width="700pt" height="700pt" version="1.1" viewBox="0 0 700 600" xmlns="http://www.w3.org/2000/svg" xmlns:xlink="http://www.w3.org/1999/xlink">
 <g>
  <path d="m537.41 157.27-93.336-93.336c-5.0391-4.9414-11.852-7.9297-19.41-7.9297h-241.64c-16.055 0-29.027 12.602-29.027 28v392c0 15.398 12.973 28 29.027 28h334.04c15.961 0 29.027-12.602 29.027-28v-298.67c-0.09375-7.8398-3.3594-15.023-8.6797-20.066zm-84.746-58.426 50.492 50.492h-50.492zm-269.64-24.172h241.64c2.5195 0 4.8516 1.0273 6.5352 2.707l0.1875 0.1875c1.582 1.5859 2.6094 3.918 2.6094 6.4375v74.668c0 5.1328 4.1992 9.332 9.332 9.332h74.668c5.1328 0 9.332 4.1992 9.332 9.332v93.332l-354.66 0.003907v-186.67c0-5.0391 4.7578-9.332 10.359-9.332zm344.3 345.33h-354.66v-130.67h354.67zm-10.359 65.332h-333.95c-5.6953 0-10.359-4.1992-10.359-9.332v-37.332h354.67v37.332c-0.003907 5.1328-4.668 9.332-10.363 9.332z"/>
  <path d="m238 326.67h18.668v65.332c0 5.1328 4.1992 9.332 9.332 9.332s9.332-4.1992 9.332-9.332v-65.332h18.668c5.1328 0 9.332-4.1992 9.332-9.332 0-5.1328-4.1992-9.332-9.332-9.332h-56c-5.1328 0-9.332 4.1992-9.332 9.332 0 5.1289 4.1992 9.332 9.332 9.332z"/>
  <path d="m406 326.67h18.668v65.332c0 5.1328 4.1992 9.332 9.332 9.332s9.332-4.1992 9.332-9.332v-65.332h18.668c5.1328 0 9.332-4.1992 9.332-9.332 0-5.1328-4.1992-9.332-9.332-9.332h-56c-5.1328 0-9.332 4.1992-9.332 9.332 0 5.1289 4.1992 9.332 9.332 9.332z"/>
  <path d="m327.13 400.31c1.4023 0.74609 2.8008 1.0234 4.1992 1.0234 3.4531 0 6.7188-1.8672 8.3984-5.1328l10.27-20.625 10.359 20.625c1.5859 3.2656 4.8555 5.1328 8.3086 5.1328 1.3984 0 2.8008-0.28125 4.1992-1.0273 4.5742-2.332 6.4414-7.9336 4.1992-12.508l-16.613-33.129 16.613-33.133c2.332-4.5742 0.46484-10.172-4.1992-12.508-4.5742-2.332-10.172-0.46484-12.508 4.1992l-10.359 20.535-10.359-20.625c-2.332-4.5742-7.9336-6.4414-12.508-4.1992-4.5742 2.332-6.4414 7.9336-4.1992 12.508l16.613 33.223-16.613 33.133c-2.2422 4.6641-0.375 10.266 4.1992 12.508z"/>
 </g>
</svg>
