<svg xmlns="http://www.w3.org/2000/svg" width="240" height="140" viewBox="0 0 240 140"><path fill="#E8E1DC" d="M48.1640615,12.7604166 L37.2395833,1.8359375 C36.0677078,0.664062505 34.4791659,0 32.8255213,0 L6.24999994,0 C2.79947915,0.0130208759 0,2.81250003 0,6.26302081 L0,60.4296873 C0,63.8802081 2.79947915,66.6796872 6.24999994,66.6796872 L43.7499996,66.6796872 C47.20052,66.6796872 50,63.8802081 50,60.4296873 L50,17.1874999 C50,15.5338541 49.335937,13.9322916 48.1640615,12.7604166 Z M43.2421871,16.6796874 L33.3333338,16.6796874 L33.3333338,6.77083331 L43.2421871,16.6796874 Z M6.24999994,60.4296873 L6.24999994,6.26302081 L27.0833334,6.26302081 L27.0833334,19.8046874 C27.0833334,21.5364583 28.4765621,22.9296875 30.2083336,22.9296875 L43.7499999,22.9296875 L43.7499999,60.4296873 L6.24999994,60.4296873 Z M34.9088548,33.346354 C34.1666666,33.346354 33.5286453,33.8671874 33.3854173,34.5833333 C30.7031252,47.3046874 30.729167,47.0052082 30.6510417,48.0598957 C30.625,47.9036456 30.5989582,47.7213539 30.5598956,47.4999998 C30.4557286,46.8359373 30.5989582,47.5260414 27.4869789,34.5442706 C27.3177075,33.8411457 26.6927088,33.346354 25.9635414,33.346354 L24.2317707,33.346354 C23.5156249,33.346354 22.8906249,33.8411457 22.7083333,34.5312499 C19.5312499,47.4218747 19.5833332,47.0572915 19.4791665,48.0338539 C19.4661458,47.8906248 19.4531249,47.7083332 19.4140625,47.4869789 C19.3229167,46.8098956 17.578125,37.9427082 16.9270834,34.596354 C16.783854,33.8671874 16.1458333,33.3333332 15.390625,33.3333332 L13.203125,33.3333332 C12.1875,33.3333332 11.4453124,34.2838539 11.6796875,35.2604165 C12.7213541,39.5052082 15.1562499,49.5182289 16.0026042,52.9687497 C16.1718749,53.6718748 16.7968749,54.1536456 17.5260416,54.1536456 L20.8072915,54.1536456 C21.5234374,54.1536456 22.1484374,53.6718748 22.3177083,52.9687497 L24.6484374,43.6718748 C24.8437499,42.8645832 24.9739583,42.1093749 25.0390625,41.4192706 L25.4166663,43.6718748 C25.4296872,43.7239581 27.0572916,50.2473956 27.7473964,52.9687497 C27.9166661,53.658854 28.5416665,54.1536456 29.257813,54.1536456 L32.4739577,54.1536456 C33.1901042,54.1536456 33.8151046,53.6718748 33.9843743,52.9687497 C36.6927082,42.3046873 37.9166672,37.4739582 38.4765632,35.2604165 C38.7239581,34.2708332 37.9817699,33.3203123 36.9661449,33.3203123 L34.9088548,33.3203123 L34.9088548,33.346354 Z" transform="translate(95 36.66)"/></svg>