<svg xmlns="http://www.w3.org/2000/svg" width="240" height="140" viewBox="0 0 240 140"><path fill="#E8E1DC" d="M48.1694017,12.7527343 L37.247265,1.830599 C36.07517,0.658494667 34.485465,0 32.827865,0 L6.25,0 C2.798177,0 0,2.798177 0,6.25 L0,60.4166667 C0,63.8684897 2.798177,66.6666667 6.25,66.6666667 L43.75,66.6666667 C47.2018233,66.6666667 50,63.8684897 50,60.4166667 L50,17.1721353 C50,15.5145357 49.341505,13.92483 48.1694017,12.7527343 L48.1694017,12.7527343 Z M33.3333333,6.75546867 L43.2445317,16.6666667 L33.3333333,16.6666667 L33.3333333,6.75546867 Z M43.75,60.4166667 L6.25,60.4166667 L6.25,6.25 L16.629427,6.25 L16.629427,8.33333333 L20.7960937,8.33333333 L20.7960937,6.25 L27.0833333,6.25 L27.0833333,19.7916667 C27.0833333,21.5175782 28.4824217,22.9166667 30.2083333,22.9166667 L43.75,22.9166667 L43.75,60.4166667 Z M25.0351563,12.5 L20.8684897,12.5 L20.8684897,8.33333333 L25.0351563,8.33333333 L25.0351563,12.5 Z M20.8684897,12.5 L20.8684897,16.6666667 L16.701823,16.6666667 L16.701823,12.5 L20.8684897,12.5 Z M20.8684897,20.8333333 L20.8684897,25 L16.701823,25 L16.701823,20.8333333 L20.8684897,20.8333333 Z M25.0351563,20.8333333 L20.8684897,20.8333333 L20.8684897,16.6666667 L25.0351563,16.6666667 L25.0351563,20.8333333 Z M25.2837233,34.5934895 C25.1393017,33.8612245 24.4971525,33.3333333 23.7507812,33.3333333 L20.8684895,33.3333333 L20.8684895,29.1666667 L16.701823,29.1666667 L16.701823,33.3333333 L14.1380208,45.9773437 C13.2798177,50.2097657 16.5148438,54.1666667 20.8333333,54.1666667 C25.1369783,54.1666667 28.36862,50.2354167 27.5359367,46.0130208 L25.2837233,34.5934895 Z M20.8684897,50.7907552 C18.5354167,50.7907552 16.6440105,49.2145833 16.6440105,47.2704427 C16.6440105,45.3261718 18.5352865,43.7501302 20.8684897,43.7501302 C23.2016927,43.7501302 25.0929683,45.3263022 25.0929683,47.2704427 C25.0929683,49.2145833 23.2015625,50.7907552 20.8684897,50.7907552 L20.8684897,50.7907552 Z M25.0351563,29.1666667 L20.8684897,29.1666667 L20.8684897,25 L25.0351563,25 L25.0351563,29.1666667 Z" transform="translate(95 36.667)"/></svg>