<?xml version="1.0" encoding="utf-8"?>
<!-- Generator: Adobe Illustrator 24.2.1, SVG Export Plug-In . SVG Version: 6.00 Build 0)  -->
<svg version="1.1" id="logo" xmlns="http://www.w3.org/2000/svg" xmlns:xlink="http://www.w3.org/1999/xlink" x="0px" y="0px"
	 viewBox="0 0 185 185" style="enable-background:new 0 0 185 185;" xml:space="preserve">
<style type="text/css">
	.st0{fill:#dadada;}
</style>
<g>
	<path id="icon_x5F_bottom" class="st0" d="M98.4,81l7,7c2.9,2.9,2.7,7.7-0.3,10.8l-7.4,7.4l-8.9-8.9c-1.8-1.8-4.8-1.8-6.5,0
		L63,116.6l12.9,12.9c4.1,4.1,10.9,3.9,15.1-0.4l24-24c6.5-6.5,6.7-16.7,0.6-22.8l-9.2-9.2L98.4,81z"/>
	<path id="icon_x5F_top" class="st0" d="M78.6,54.9L54,79.5c-6.4,6.4-6.7,16.6-0.5,22.7l9.2,9.2l7.6-7.6l-7-7
		c-2.9-2.9-2.9-7.6,0-10.5l8.4-8.4l8.9,8.9c1.8,1.8,4.8,1.8,6.5,0l19.5-19.4L93.7,54.6C89.7,50.4,82.9,50.7,78.6,54.9z"/>
</g>

</svg>
